Coordinates
version=1
nRows=14
nColumns=24
inDegrees=yes

Units are S.I. units (second, meters, Newtons, ...)
Angles are in degrees.

endheader
time	pelvis_tilt	pelvis_list	pelvis_rotation	pelvis_tx	pelvis_ty	pelvis_tz	hip_flexion_r	hip_adduction_r	hip_rotation_r	knee_angle_r	ankle_angle_r	subtalar_angle_r	mtp_angle_r	hip_flexion_l	hip_adduction_l	hip_rotation_l	knee_angle_l	ankle_angle_l	subtalar_angle_l	mtp_angle_l	lumbar_extension	lumbar_bending	lumbar_rotation
      0.89266667	      1.64993870	     -4.82996943	     -1.56782239	     -0.42506215	      1.02230406	      0.30274909	      6.57456080	      7.96017668	     -2.73795867	     -9.50038210	     -5.07202792	    -13.98962828	     -2.49775668	     13.50275272	     -9.70316258	     -5.94229510	    -69.41604484	      1.72197557	     -8.54149940	    -10.55084848	    -13.23648562	      6.03607267	      5.27707913
      0.89683333	      1.69060829	     -4.69787417	     -1.72748025	     -0.41986521	      1.02308490	      0.30322991	      6.12069141	      7.84336208	     -2.61583581	     -9.35018375	     -4.95503286	    -13.90713298	     -2.49080162	     14.04499807	     -9.61602455	     -6.10372295	    -69.23132337	      2.03341413	     -8.62491708	    -10.57332095	    -13.30075296	      5.82003988	      5.44469297
      0.90100000	      1.76782838	     -4.53248883	     -1.95773559	     -0.41462956	      1.02395003	      0.30383413	      5.62219292	      7.69469958	     -2.41147130	     -9.20347956	     -4.75105161	    -13.73084416	     -2.47585707	     14.48976939	     -9.51564728	     -6.35938827	    -68.92908740	      2.24904537	     -8.66207448	    -10.62379539	    -13.39877142	      5.57472185	      5.77106362
      0.90516667	      1.79349752	     -4.43239746	     -2.06826266	     -0.40940436	      1.02464582	      0.30414817	      5.17108630	      7.59773355	     -2.34025395	     -9.02013429	     -4.65214544	    -13.68093433	     -2.47189004	     15.03669461	     -9.44738748	     -6.47601661	    -68.63297599	      2.53448740	     -8.74368686	    -10.63315739	    -13.43032821	      5.45372638	      5.83866822
      0.90933333	      1.90553058	     -4.23114094	     -2.33010240	     -0.40423009	      1.02552217	      0.30477407	      4.65746962	      7.39896857	     -2.14308372	     -8.90731106	     -4.43328223	    -13.43366242	     -2.45463937	     15.40149592	     -9.31873196	     -6.79471541	    -68.19248146	      2.74136316	     -8.79415630	    -10.68516883	    -13.58711713	      5.13424243	      6.17894717
      0.91350000	      2.01542555	     -4.08944785	     -2.53414695	     -0.39902034	      1.02633745	      0.30529235	      4.12251831	      7.26031371	     -1.98566739	     -8.73985380	     -4.29941319	    -13.32752144	     -2.43773020	     15.77764742	     -9.24648834	     -7.05815709	    -67.72652089	      2.97318567	     -8.86808820	    -10.74713729	    -13.72565791	      4.90693810	      6.44161909
      0.91766667	      2.12139069	     -3.94582227	     -2.72514443	     -0.39382451	      1.02710851	      0.30573941	      3.59894764	      7.10953773	     -1.85500199	     -8.58269156	     -4.14872765	    -13.18640609	     -2.42110836	     16.14767375	     -9.16370221	     -7.31072840	    -67.20439805	      3.18980814	     -8.93102201	    -10.80473093	    -13.85982289	      4.69209551	      6.64517830
      0.92183333	      2.22614734	     -3.80773825	     -2.91365996	     -0.38861875	      1.02784859	      0.30616498	      3.07612514	      6.96029909	     -1.73272495	     -8.42320667	     -4.00103674	    -13.04802697	     -2.40423799	     16.50262025	     -9.08738764	     -7.56997261	    -66.62706388	      3.39484209	     -9.00645054	    -10.86308104	    -13.98917610	      4.48444212	      6.85374444
      0.92600000	      2.32765583	     -3.67475311	     -3.10292941	     -0.38341143	      1.02855104	      0.30659174	      2.55752270	      6.81417390	     -1.61152378	     -8.26390598	     -3.84873509	    -12.91092219	     -2.38681910	     16.84377605	     -9.02074496	     -7.83749369	    -65.99471788	      3.58262837	     -9.07686510	    -10.92400339	    -14.11351775	      4.27641646	      7.06070066
      0.93016667	      2.45792004	     -3.54514681	     -3.29548820	     -0.37820661	      1.02926905	      0.30701058	      2.00482896	      6.66672185	     -1.48387779	     -8.09473913	     -3.70542069	    -12.77848389	     -2.36907949	     17.13133407	     -8.95783558	     -8.12003627	    -65.30150925	      3.76956550	     -9.14908961	    -10.99022514	    -14.26861146	      4.06680690	      7.27206161
      0.93433333	      2.57458014	     -3.42495591	     -3.48480955	     -0.37299563	      1.02992805	      0.30740200	      1.47027700	      6.52534769	     -1.35866739	     -7.93361223	     -3.55769638	    -12.65519474	     -2.35088182	     17.41830781	     -8.90404746	     -8.40160074	    -64.55868625	      3.93417115	     -9.21938439	    -11.05928564	    -14.40669786	      3.87954820	      7.47882480
      0.93850000	      2.72314011	     -3.30812412	     -3.67236647	     -0.36779867	      1.03060039	      0.30779053	      0.89793994	      6.38260409	     -1.22814943	     -7.75998892	     -3.41629660	    -12.53266949	     -2.33209062	     17.65138098	     -8.85412905	     -8.69385428	    -63.76216442	      4.10189113	     -9.28696553	    -11.13650718	    -14.58804420	      3.68325240	      7.68583387
      0.94266667	      2.84862587	     -3.20140724	     -3.85713398	     -0.36259067	      1.03120075	      0.30814701	      0.35469033	      6.24679695	     -1.10640646	     -7.59590343	     -3.27036198	    -12.41545858	     -2.31427634	     17.89244990	     -8.81312149	     -8.98308079	    -62.91550404	      4.24531240	     -9.34171372	    -11.21283064	    -14.73284797	      3.51122912	      7.88026721
      0.94683333	      2.95713454	     -3.09929310	     -4.03635971	     -0.35735344	      1.03173594	      0.30850330	     -0.17086419	      6.11475229	     -1.00205675	     -7.43098291	     -3.13227406	    -12.30795867	     -2.29877297	     18.13396127	     -8.77984023	     -9.27709293	    -62.02169016	      4.38867002	     -9.40080625	    -11.28615625	    -14.84858415	      3.32830036	      8.05966884
